<svg xmlns="http://www.w3.org/2000/svg" xmlns:xlink="http://www.w3.org/1999/xlink" width="620" height="211.97"><rect width="620" height="211.97" rx="5" ry="5" class="a"/><svg y="0%" x="0%"><circle cx="20" cy="20" r="6" fill="#ff5f58"/><circle cx="40" cy="20" r="6" fill="#ffbd2e"/><circle cx="60" cy="20" r="6" fill="#18c132"/></svg><svg height="151.97" viewBox="0 0 58 15.197" width="580" x="15" xmlns="http://www.w3.org/2000/svg" xmlns:xlink="http://www.w3.org/1999/xlink" y="50"><style>@keyframes i{0%{transform:translateX(0)}16.7%{transform:translateX(-58px)}50%{transform:translateX(-116px)}66.7%{transform:translateX(-174px)}83.3%{transform:translateX(-232px)}to{transform:translateX(-290px)}}.a{fill:#282d35}.f{fill:#b9c0cb;white-space:pre}</style><g font-family="Monaco,Consolas,Menlo,'Bitstream Vera Sans Mono','Powerline Symbols',monospace" font-size="1.67"><defs><symbol id="1"><text y="1.67" class="f">$</text><text x="2.004" y="1.67" class="f">echo</text><text x="7.014" y="1.67" class="f">&apos;{&quot;user&quot;:&quot;admin&quot;,&quot;password&quot;:&quot;supersecret&quot;}&apos;</text><text x="51.102" y="1.67" class="f">|</text><text x="53.106" y="1.67" class="f">jsonm</text></symbol><symbol id="2"><text y="1.67" class="f">ask</text></symbol><symbol id="3"><text x="3.006" y="1.67" class="f">{</text></symbol><symbol id="4"><text x="6.012" y="1.67" class="f">&quot;user&quot;:</text><text x="14.028" y="1.67" class="f">&quot;admin&quot;,</text></symbol><symbol id="5"><text x="24.048" y="1.67" class="f">&quot;password&quot;:</text><text x="36.072" y="1.67" class="f">&quot;super********&quot;</text></symbol><symbol id="a"><path fill="transparent" d="M0 0h58v8H0z"/></symbol><symbol id="b"><path fill="#6f7683" d="M0 0h1.102v2.171H0z"/></symbol></defs><path class="a" d="M0 0h58v15.197H0z"/><g style="animation-duration:15s;animation-iteration-count:1;animation-name:i;animation-fill-mode:forwards;animation-timing-function:steps(1,end)"><svg width="348"><svg><use xlink:href="#a"/><use xlink:href="#b" x="-.004"/></svg><svg x="58"><use xlink:href="#a"/><use xlink:href="#b" x="2.996" y="4.317"/><use xlink:href="#1"/><use xlink:href="#2" y="2.171"/></svg><svg x="116"><use xlink:href="#a"/><use xlink:href="#b" x="3.996" y="6.488"/><use xlink:href="#1"/><use xlink:href="#2" y="2.171"/><use xlink:href="#3" y="4.342"/></svg><svg x="174"><use xlink:href="#a"/><use xlink:href="#b" x="21.996" y="8.659"/><use xlink:href="#1"/><use xlink:href="#2" y="2.171"/><use xlink:href="#3" y="4.342"/><use xlink:href="#4" y="6.513"/></svg><svg x="232"><use xlink:href="#a"/><use xlink:href="#b" x="50.996" y="10.83"/><use xlink:href="#1"/><use xlink:href="#2" y="2.171"/><use xlink:href="#3" y="4.342"/><use xlink:href="#4" y="6.513"/><use xlink:href="#5" y="8.684"/></svg><svg x="290"><use xlink:href="#a"/><use xlink:href="#b" x="51.996" y="13.001"/><use xlink:href="#1"/><use xlink:href="#2" y="2.171"/><use xlink:href="#3" y="4.342"/><use xlink:href="#4" y="6.513"/><use xlink:href="#5" y="8.684"/><text x="51.102" y="12.525" class="f">}</text></svg></svg></g></g></svg></svg>